<svg width="395" height="352" viewBox="0 0 395 352" fill="none" xmlns="http://www.w3.org/2000/svg">
<g clip-path="url(#clip0_463_9042)">
<path opacity="0.1" d="M195.206 336.454C293.589 336.454 373.345 257.656 373.345 160.454C373.345 63.2515 293.589 -15.5465 195.206 -15.5465C96.8216 -15.5465 17.0657 63.2515 17.0657 160.454C17.0657 257.656 96.8216 336.454 195.206 336.454Z" fill="#5586FF"/>
<path d="M393.8 108.381L343.148 259.509C342.179 262.403 340.642 265.079 338.626 267.385C336.61 269.692 334.153 271.583 331.397 272.952C328.641 274.32 325.639 275.139 322.563 275.361C319.486 275.583 316.396 275.204 313.467 274.246L197.79 236.404L190.584 205.895L230.563 181.905L214.589 138.761L217.768 134.644L222.923 127.969L240.113 105.706L223.623 58.648L244.567 35.1137L378.889 79.0568C381.817 80.0146 384.526 81.5329 386.86 83.525C389.194 85.5172 391.108 87.9441 392.493 90.6672C393.878 93.3903 394.706 96.3562 394.93 99.3956C395.154 102.435 394.77 105.488 393.8 108.381Z" fill="#5586FF"/>
<path d="M327.149 235.718C325.875 239.588 323.512 243.021 320.336 245.614C317.161 248.207 313.304 249.854 309.217 250.362C305.129 250.871 300.979 250.22 297.253 248.485C293.526 246.751 290.375 244.004 288.169 240.567C284.794 235.206 283.573 228.558 285.717 222.163C286.743 219.113 288.452 216.331 290.718 214.024C292.983 211.718 295.747 209.946 298.802 208.842C302.649 207.385 306.836 207.039 310.874 207.845C314.912 208.65 318.635 210.575 321.607 213.393C324.58 216.211 326.679 219.807 327.661 223.76C328.642 227.713 328.465 231.861 327.149 235.718Z" fill="white"/>
<path d="M280.401 238.023C276.543 239.476 272.348 239.818 268.301 239.01C264.255 238.202 260.524 236.277 257.54 233.458C254.557 230.638 252.445 227.041 251.448 223.083C250.451 219.125 250.611 214.969 251.908 211.097C253.206 207.225 255.589 203.797 258.78 201.209C261.972 198.622 265.84 196.982 269.937 196.479C274.034 195.977 278.191 196.633 281.925 198.371C285.66 200.109 288.819 202.858 291.036 206.298C285.089 208.611 281.119 213.558 278.975 219.954C276.831 226.35 276.94 232.918 280.401 238.023Z" fill="#634EF5"/>
<path d="M226.45 133.304C226.185 134.096 225.673 134.786 224.989 135.274C224.304 135.763 223.481 136.027 222.636 136.027C222.208 136.025 221.783 135.956 221.377 135.823L217.768 134.644L222.923 127.969L223.9 128.291C224.911 128.622 225.747 129.336 226.226 130.276C226.704 131.216 226.785 132.305 226.45 133.304Z" fill="white"/>
<path d="M284.741 148.195L243.43 134.68C241.325 133.991 239.054 135.119 238.357 137.198C237.66 139.278 238.801 141.522 240.906 142.211L282.217 155.726C284.322 156.414 286.593 155.287 287.29 153.207C287.987 151.127 286.846 148.883 284.741 148.195Z" fill="white"/>
<path d="M345.582 168.099L304.271 154.585C302.166 153.896 299.895 155.024 299.198 157.103C298.501 159.183 299.642 161.427 301.747 162.116L343.058 175.63C345.163 176.319 347.435 175.191 348.131 173.112C348.828 171.032 347.687 168.788 345.582 168.099Z" fill="white"/>
<path d="M153.524 236.79L173.969 260.737L51.3729 279.243C48.3239 279.703 45.2129 279.566 42.2175 278.839C39.2222 278.111 36.4012 276.808 33.9157 275.003C31.4301 273.199 29.3287 270.928 27.7314 268.321C26.1341 265.714 25.0721 262.822 24.6062 259.81L0.269333 102.43C-0.196412 99.4182 -0.0570908 96.345 0.679343 93.3861C1.41578 90.4272 2.7349 87.6406 4.56139 85.1855C6.38788 82.7303 8.68596 80.6546 11.3244 79.0769C13.9629 77.4992 16.89 76.4504 19.9388 75.9904L123.12 60.4171L115.28 90.7811L151.602 125.305L146.518 152.855L144.993 161.11L144.054 166.203L178.113 197.479L153.524 236.79Z" fill="#5586FF"/>
<path d="M66.918 97.872L36.5691 102.453C31.3231 103.245 27.7201 108.089 28.5216 113.272L31.2222 130.735C32.0238 135.918 36.9263 139.478 42.1723 138.686L72.5212 134.104C77.7672 133.313 81.3702 128.469 80.5687 123.286L77.8681 105.823C77.0665 100.64 72.164 97.0801 66.918 97.872Z" fill="white"/>
<path d="M84.1817 162.264L41.164 168.758C38.9722 169.089 37.4668 171.113 37.8017 173.278C38.1366 175.444 40.1849 176.931 42.3767 176.6L85.3944 170.106C87.5863 169.776 89.0916 167.752 88.7567 165.586C88.4218 163.421 86.3735 161.934 84.1817 162.264Z" fill="white"/>
<path d="M146.519 152.855L144.994 161.11L105.731 167.034C105.21 167.114 104.678 167.091 104.166 166.967C103.654 166.843 103.172 166.621 102.747 166.312C102.322 166.004 101.963 165.616 101.69 165.171C101.417 164.725 101.236 164.231 101.157 163.716C101.125 163.515 101.108 163.313 101.108 163.11C101.109 162.163 101.453 161.248 102.078 160.53C102.703 159.812 103.568 159.339 104.516 159.197L146.519 152.855Z" fill="white"/>
<path d="M130.716 38.7436L110.852 22.0761L128.333 13.6815L130.716 38.7436Z" fill="#5586FF"/>
<path d="M171.122 43.8568L184.755 32.4783L185.947 45.0094L171.122 43.8568Z" fill="#5586FF"/>
</g>
<defs>
<clipPath id="clip0_463_9042">
<rect width="395" height="352" fill="white"/>
</clipPath>
</defs>
</svg>
