<svg width="34" height="34" viewBox="0 0 34 34" fill="none" xmlns="http://www.w3.org/2000/svg">
<rect width="34" height="34" rx="17" fill="#F7F6FE"/>
<path d="M6.38969 12.1607C5.99989 12.1607 5.61514 12.0042 5.36823 11.7089C4.95798 11.2189 5.08219 10.5322 5.64594 10.1755C8.81129 8.17181 12.5603 7.11279 16.4871 7.11279C20.4141 7.11279 24.1629 8.17181 27.3283 10.1757C27.8918 10.5324 28.0165 11.2189 27.606 11.7091C27.1958 12.1993 26.4061 12.3073 25.8428 11.9506C23.1117 10.2218 19.8767 9.30811 16.4871 9.30811C13.0978 9.30811 9.86254 10.2218 7.13167 11.9506C6.90723 12.0924 6.64745 12.1607 6.38969 12.1607Z" fill="black"/>
<path d="M9.8643 16.3324C9.47475 16.3324 9.09051 16.1761 8.84335 15.8813C8.4326 15.3915 8.5563 14.7048 9.11954 14.3476C11.27 12.9839 13.8176 12.2632 16.4869 12.2632C19.1561 12.2632 21.7037 12.9839 23.8544 14.3476C24.4174 14.7048 24.5414 15.3915 24.1306 15.8813C23.7196 16.3711 22.9304 16.4784 22.3669 16.1214C20.6512 15.0334 18.6179 14.4585 16.4869 14.4585C14.3558 14.4585 12.3225 15.0337 10.6068 16.1214C10.3829 16.2639 10.1223 16.3324 9.8643 16.3324Z" fill="black"/>
<path d="M19.6353 20.5039C19.3763 20.5039 19.1147 20.435 18.89 20.2914C18.1897 19.8451 17.3589 19.6091 16.4871 19.6091C15.6154 19.6091 14.7845 19.8451 14.0844 20.2914C13.522 20.6497 12.7323 20.5443 12.32 20.0552C11.9077 19.5663 12.0294 18.8796 12.5916 18.5211C13.728 17.7967 15.0748 17.4138 16.4871 17.4138C17.8994 17.4138 19.2465 17.7967 20.3826 18.5211C20.9451 18.8796 21.0665 19.5665 20.6542 20.0552C20.4068 20.3485 20.0236 20.5039 19.6353 20.5039Z" fill="black"/>
<path d="M16.4871 21.8699C14.9034 21.8699 13.6151 22.9901 13.6151 24.3675C13.6151 25.7444 14.9034 26.8649 16.4871 26.8649C18.0708 26.8649 19.3594 25.7446 19.3594 24.3675C19.3594 22.9904 18.0708 21.8699 16.4871 21.8699Z" fill="black"/>
</svg>
