<svg width="34" height="34" viewBox="0 0 34 34" fill="none" xmlns="http://www.w3.org/2000/svg">
<rect width="34" height="34" rx="17" fill="#F7F6FE"/>
<g clip-path="url(#clip0_363_7524)">
<path d="M23.1031 9.81657C22.8244 9.81657 22.5982 9.61987 22.5982 9.3775V5.57896C22.5982 5.33659 22.8244 5.13989 23.1031 5.13989C23.3818 5.13989 23.608 5.33659 23.608 5.57896V9.3775C23.608 9.61987 23.3821 9.81657 23.1031 9.81657Z" fill="black"/>
<path d="M6.6313 20.8105C6.35258 20.8105 6.12637 20.6138 6.12637 20.3714V5.57896C6.12637 5.33659 6.35258 5.13989 6.6313 5.13989C6.91001 5.13989 7.13622 5.33659 7.13622 5.57896V20.3714C7.13622 20.6138 6.91001 20.8105 6.6313 20.8105Z" fill="black"/>
<path d="M25.7229 24.8378C25.4442 24.8378 25.218 24.6411 25.218 24.3988C25.218 24.1564 25.4442 23.9597 25.7229 23.9597C26.7153 23.9597 27.5499 23.3624 27.7772 22.5598H23.1031C22.8244 22.5598 22.5982 22.3631 22.5982 22.1207C22.5982 21.8783 22.8244 21.6816 23.1031 21.6816H28.3429C28.6216 21.6816 28.8478 21.8783 28.8478 22.1207C28.8478 23.619 27.4459 24.8378 25.7229 24.8378Z" fill="black"/>
<path d="M23.1031 22.5597C22.8244 22.5597 22.5982 22.363 22.5982 22.1206V16.7821C22.5982 16.5397 22.8244 16.343 23.1031 16.343C23.3818 16.343 23.608 16.5397 23.608 16.7821V22.1206C23.608 22.3632 23.3821 22.5597 23.1031 22.5597Z" fill="black"/>
<path d="M9.2513 24.8377C7.5285 24.8377 6.12659 23.6189 6.12659 22.1206V20.3709C6.12659 20.1286 6.35279 19.9319 6.63151 19.9319C6.91023 19.9319 7.13643 20.1286 7.13643 20.3709V22.1206C7.13643 23.1346 8.08518 23.9596 9.2513 23.9596C9.53001 23.9596 9.75622 24.1563 9.75622 24.3987C9.75622 24.641 9.53027 24.8377 9.2513 24.8377Z" fill="black"/>
<path d="M25.7229 24.8378H9.25108C8.97236 24.8378 8.74615 24.6411 8.74615 24.3988C8.74615 24.1564 8.97236 23.9597 9.25108 23.9597H25.7229C26.0016 23.9597 26.2278 24.1564 26.2278 24.3988C26.2278 24.6411 26.0019 24.8378 25.7229 24.8378Z" fill="black"/>
<path d="M9.25108 24.8378C8.97236 24.8378 8.74615 24.6411 8.74615 24.3988C8.74615 24.1564 8.97236 23.9597 9.25108 23.9597C10.4172 23.9597 11.3659 23.1347 11.3659 22.1207C11.3659 21.8783 11.5921 21.6816 11.8709 21.6816H23.1029C23.3816 21.6816 23.6078 21.8783 23.6078 22.1207C23.6078 22.3631 23.3816 22.5598 23.1029 22.5598H12.3351C12.0933 23.85 10.8022 24.8378 9.25108 24.8378Z" fill="black"/>
<path d="M16.6638 16.541H10.1344C9.85572 16.541 9.62952 16.3443 9.62952 16.1019C9.62952 15.8595 9.85572 15.6628 10.1344 15.6628H16.6638C16.9426 15.6628 17.1688 15.8595 17.1688 16.1019C17.1688 16.3443 16.9428 16.541 16.6638 16.541Z" fill="black"/>
<path d="M24.0607 13.9773C23.7898 13.9773 23.5686 13.7918 23.5563 13.5588C23.2884 13.5481 23.0751 13.3558 23.0751 13.1202C23.0751 12.8779 23.3013 12.6812 23.58 12.6812C24.1235 12.6812 24.5656 13.0656 24.5656 13.5382C24.5656 13.7806 24.3396 13.9773 24.0607 13.9773Z" fill="black"/>
<path d="M23.1031 12.0796C22.8244 12.0796 22.5982 11.8829 22.5982 11.6406V11.1229C22.5982 10.8805 22.8244 10.6838 23.1031 10.6838C23.3818 10.6838 23.608 10.8805 23.608 11.1229V11.6406C23.608 11.8829 23.3821 12.0796 23.1031 12.0796Z" fill="black"/>
<path d="M23.58 13.559H22.6262C22.0827 13.559 21.6406 13.1746 21.6406 12.7019V12.0585C21.6406 11.5858 22.0827 11.2014 22.6262 11.2014H23.58C24.1235 11.2014 24.5656 11.5858 24.5656 12.0585C24.5656 12.3008 24.3394 12.4975 24.0607 12.4975C23.79 12.4975 23.5689 12.3122 23.5563 12.0795H22.6502V12.6811H23.58C23.8587 12.6811 24.0849 12.8778 24.0849 13.1201C24.0849 13.3625 23.8587 13.559 23.58 13.559Z" fill="black"/>
<path d="M23.1031 15.5564C22.8244 15.5564 22.5982 15.3597 22.5982 15.1174V14.5997C22.5982 14.3573 22.8244 14.1606 23.1031 14.1606C23.3818 14.1606 23.608 14.3573 23.608 14.5997V15.1174C23.608 15.3597 23.3821 15.5564 23.1031 15.5564Z" fill="black"/>
<path d="M23.58 15.0389H22.6262C22.0827 15.0389 21.6406 14.6545 21.6406 14.1818C21.6406 13.9395 21.8668 13.7428 22.1455 13.7428C22.4162 13.7428 22.6373 13.9281 22.6499 14.1608H23.556V13.5382C23.556 13.2958 23.7822 13.0991 24.0609 13.0991C24.3397 13.0991 24.5659 13.2958 24.5659 13.5382V14.1818C24.5656 14.6543 24.1235 15.0389 23.58 15.0389Z" fill="black"/>
<path d="M19.8277 19.2043H10.1344C9.85572 19.2043 9.62952 19.0076 9.62952 18.7652C9.62952 18.5229 9.85572 18.3262 10.1344 18.3262H19.8277C20.1064 18.3262 20.3326 18.5229 20.3326 18.7652C20.3326 19.0076 20.1064 19.2043 19.8277 19.2043Z" fill="black"/>
<path d="M21.0443 7.53463C20.9281 7.53463 20.812 7.49995 20.7178 7.43057L18.9852 6.15422L17.2528 7.43057C17.0645 7.56932 16.7883 7.56932 16.6 7.43057L14.8673 6.15422L13.1347 7.43057C12.9463 7.56932 12.6702 7.56932 12.4818 7.43057L10.7492 6.15422L9.01679 7.43057C8.82845 7.56932 8.55226 7.56932 8.36392 7.43057L6.30485 5.91383C6.09203 5.75709 6.06577 5.48004 6.24603 5.29497C6.42629 5.10969 6.74489 5.08708 6.95772 5.24382L8.69036 6.52018L10.4227 5.24382C10.6111 5.10508 10.8873 5.10508 11.0756 5.24382L12.8082 6.52018L14.5409 5.24382C14.7292 5.10508 15.0054 5.10508 15.1938 5.24382L16.9264 6.52018L18.6588 5.24382C18.8471 5.10508 19.1233 5.10508 19.3116 5.24382L21.0443 6.52018L22.7767 5.24382C22.9895 5.0873 23.3078 5.10991 23.4884 5.29497C23.6686 5.48004 23.6421 5.75709 23.4295 5.91383L21.3707 7.43057C21.2765 7.49995 21.1604 7.53463 21.0443 7.53463Z" fill="black"/>
<path d="M23.1031 17.2211C20.477 17.2211 18.3404 15.3633 18.3404 13.0797C18.3404 10.7961 20.477 8.93823 23.1031 8.93823C25.7289 8.93823 27.8655 10.7961 27.8655 13.0797C27.8655 15.3633 25.7289 17.2211 23.1031 17.2211ZM23.1031 9.81636C21.0339 9.81636 19.3503 11.2802 19.3503 13.0797C19.3503 14.8792 21.0339 16.343 23.1031 16.343C25.1723 16.343 26.8557 14.879 26.8557 13.0797C26.8557 11.2802 25.1723 9.81636 23.1031 9.81636Z" fill="black"/>
<path d="M14.8842 13.8779H10.1344C9.85572 13.8779 9.62952 13.6812 9.62952 13.4388C9.62952 13.1965 9.85572 12.9998 10.1344 12.9998H14.8842C15.163 12.9998 15.3892 13.1965 15.3892 13.4388C15.3892 13.6812 15.163 13.8779 14.8842 13.8779Z" fill="black"/>
<path d="M16.6638 11.2146H10.1344C9.85572 11.2146 9.62952 11.0179 9.62952 10.7755C9.62952 10.5331 9.85572 10.3364 10.1344 10.3364H16.6638C16.9426 10.3364 17.1688 10.5331 17.1688 10.7755C17.1688 11.0179 16.9428 11.2146 16.6638 11.2146Z" fill="black"/>
</g>
<defs>
<clipPath id="clip0_363_7524">
<rect width="23" height="20" fill="white" transform="translate(6 5)"/>
</clipPath>
</defs>
</svg>
