<svg width="34" height="34" viewBox="0 0 34 34" fill="none" xmlns="http://www.w3.org/2000/svg">
<rect width="34" height="34" rx="17" fill="#F7F6FE"/>
<path d="M27.9342 8.48779H7.04003C6.53637 8.48779 6.12637 8.84431 6.12637 9.28228V21.4996C6.12637 21.9376 6.53637 22.2941 7.04003 22.2941H15.6442V23.5492H15.3556C14.2645 23.5492 13.3768 24.321 13.3768 25.2699C13.3768 25.3913 13.4899 25.4894 13.6293 25.4894H21.3447C21.4843 25.4894 21.5972 25.3913 21.5972 25.2699C21.5972 24.321 20.7095 23.5492 19.6186 23.5492H19.3301V22.2941H27.9342C28.4381 22.2941 28.8479 21.9376 28.8479 21.4996V9.28228C28.8479 8.84431 28.4381 8.48779 27.9342 8.48779ZM19.0776 23.9885H19.6189C20.3455 23.9885 20.9506 24.4482 21.0708 25.0505H13.9034C14.0236 24.4482 14.629 23.9885 15.3556 23.9885H15.8966C16.036 23.9885 16.1491 23.8903 16.1491 23.7689V22.2943H18.8252V23.7689C18.8252 23.8903 18.938 23.9885 19.0776 23.9885ZM28.3429 21.4999C28.3429 21.6959 28.1594 21.8553 27.9342 21.8553H19.0776H15.8966H7.04003C6.81458 21.8553 6.6313 21.6957 6.6313 21.4999V9.28228C6.6313 9.08624 6.81458 8.92686 7.04003 8.92686H27.9342C28.1594 8.92686 28.3429 9.08645 28.3429 9.28228V21.4999Z" fill="black"/>
<path d="M27.1175 9.77295H7.85674C7.71738 9.77295 7.60428 9.8713 7.60428 9.99248V19.9116C7.60428 20.033 7.71738 20.1311 7.85674 20.1311H27.1177C27.2574 20.1311 27.3702 20.033 27.3702 19.9116V9.99248C27.37 9.8713 27.2571 9.77295 27.1175 9.77295ZM26.865 19.692H8.1092V10.212H26.8653L26.865 19.692Z" fill="black"/>
<path d="M13.7191 14.1395H15.0791C15.0786 14.145 15.0754 14.1498 15.0754 14.1553V16.8626C15.0754 16.984 15.1885 17.0821 15.3278 17.0821C15.4672 17.0821 15.5803 16.984 15.5803 16.8626V14.1553C15.5803 14.1496 15.577 14.145 15.5765 14.1395H16.9365C17.0759 14.1395 17.189 14.0412 17.189 13.92C17.189 13.7988 17.0759 13.7004 16.9365 13.7004H13.7191C13.5798 13.7004 13.4667 13.7988 13.4667 13.92C13.4667 14.0412 13.5795 14.1395 13.7191 14.1395Z" fill="black"/>
<path d="M19.5835 16.9483C19.6229 17.0293 19.7146 17.0817 19.8158 17.0817C19.917 17.0817 20.0087 17.0293 20.0481 16.9483L21.4876 14.0057C21.5424 13.8941 21.4823 13.7651 21.3543 13.7176C21.2263 13.6704 21.0776 13.7223 21.0231 13.8338L19.8158 16.3015L18.6085 13.8338C18.5543 13.7223 18.4058 13.6704 18.2773 13.7176C18.1491 13.7651 18.0892 13.8941 18.144 14.0057L19.5835 16.9483Z" fill="black"/>
<path d="M27.1175 20.7585H26.6009C26.4613 20.7585 26.3485 20.8567 26.3485 20.9781C26.3485 21.0995 26.4613 21.1976 26.6009 21.1976H27.1175C27.2571 21.1976 27.3699 21.0995 27.3699 20.9781C27.3699 20.8567 27.2571 20.7585 27.1175 20.7585Z" fill="black"/>
</svg>
