<svg width="34" height="34" viewBox="0 0 34 34" fill="none" xmlns="http://www.w3.org/2000/svg">
<rect width="34" height="34" rx="17" fill="#F7F6FE"/>
<path d="M21.732 26.6642C21.549 26.8268 21.3126 26.9167 21.0677 26.9167H18.9167C18.3644 26.9167 17.9167 26.469 17.9167 25.9167V24.2277C17.9167 23.942 18.0388 23.67 18.2524 23.4802L21.6496 20.4611C21.8336 20.2976 21.9184 20.0534 21.9167 19.8072C21.9161 19.0873 22.1615 18.3842 22.6205 17.7909C23.0794 17.1977 23.7302 16.7422 24.4868 16.4849C25.2433 16.2275 26.07 16.1804 26.8574 16.3497C27.6448 16.519 28.3557 16.8968 28.8962 17.4331C29.4367 17.9693 29.7812 18.6388 29.8842 19.3529C29.9872 20.0669 29.8438 20.792 29.4729 21.432C29.1021 22.0721 28.5213 22.597 27.8074 22.9373C27.2226 23.2161 26.571 23.3602 25.9119 23.3595C25.633 23.3592 25.3565 23.4431 25.148 23.6284L21.732 26.6642ZM19.5167 24.7167C19.5167 25.1464 19.865 25.4948 20.2948 25.4948H20.436C20.6611 25.4948 20.8784 25.4122 21.0467 25.2626L24.6207 22.0865C24.8281 21.9021 25.1103 21.8262 25.3823 21.8817C25.8965 21.9905 26.4367 21.9471 26.9207 21.7582C27.4047 21.5693 27.8061 21.2451 28.0639 20.835C28.3218 20.4249 28.4219 19.9512 28.3492 19.4859C28.2766 19.0206 28.035 18.5891 27.6612 18.2569C27.2874 17.9247 26.8018 17.71 26.2782 17.6454C25.7546 17.5808 25.2216 17.6698 24.7601 17.8989C24.2986 18.1281 23.9339 18.4848 23.7213 18.9149C23.5087 19.345 23.4599 19.8251 23.5823 20.2821C23.6432 20.5178 23.567 20.7677 23.3851 20.9294L19.7779 24.1351C19.6117 24.2827 19.5167 24.4944 19.5167 24.7167Z" fill="black"/>
<path d="M26.1666 20.25C26.5809 20.25 26.9166 19.9515 26.9166 19.5834C26.9166 19.2152 26.5809 18.9167 26.1666 18.9167C25.7524 18.9167 25.4166 19.2152 25.4166 19.5834C25.4166 19.9515 25.7524 20.25 26.1666 20.25Z" fill="black"/>
<path d="M11.9167 10.3167C11.9167 9.91167 12.245 9.58334 12.65 9.58334H21.6833C22.0883 9.58334 22.4167 9.91167 22.4167 10.3167C22.4167 10.7217 22.0883 11.05 21.6833 11.05H12.65C12.245 11.05 11.9167 10.7217 11.9167 10.3167ZM11.9167 13.25C11.9167 12.845 12.245 12.5167 12.65 12.5167H21.6833C22.0883 12.5167 22.4167 12.845 22.4167 13.25C22.4167 13.655 22.0883 13.9833 21.6833 13.9833H12.65C12.245 13.9833 11.9167 13.655 11.9167 13.25ZM11.9167 16.1833C11.9167 15.7783 12.245 15.45 12.65 15.45H16.4333C16.8383 15.45 17.1667 15.7783 17.1667 16.1833C17.1667 16.5884 16.8383 16.9167 16.4333 16.9167H12.65C12.245 16.9167 11.9167 16.5884 11.9167 16.1833ZM11.9167 23.5167C11.9167 23.1117 12.245 22.7833 12.65 22.7833H14.6833C15.0883 22.7833 15.4167 23.1117 15.4167 23.5167C15.4167 23.9217 15.0883 24.25 14.6833 24.25H12.65C12.245 24.25 11.9167 23.9217 11.9167 23.5167Z" fill="black"/>
<path d="M15.5167 26.2024C15.5167 26.5969 15.1969 26.9167 14.8024 26.9167H10.5667C10.1291 26.9167 9.70937 26.7661 9.39994 26.4982C9.0905 26.2303 8.91666 25.867 8.91666 25.4881V8.34523C8.91666 7.96635 9.0905 7.60298 9.39994 7.33508C9.70937 7.06717 10.1291 6.91666 10.5667 6.91666H23.7667C24.2043 6.91666 24.624 7.06717 24.9334 7.33508C25.2428 7.60298 25.4167 7.96635 25.4167 8.34523V13.9488C25.4167 14.4044 25.0473 14.7738 24.5917 14.7738C24.136 14.7738 23.7667 14.4044 23.7667 13.9488V9.34523C23.7667 8.79294 23.319 8.34523 22.7667 8.34523H11.5667C11.0144 8.34523 10.5667 8.79294 10.5667 9.34523V24.4881C10.5667 25.0404 11.0144 25.4881 11.5667 25.4881H14.8024C15.1969 25.4881 15.5167 25.8079 15.5167 26.2024Z" fill="black"/>
</svg>
