<svg width="34" height="34" viewBox="0 0 34 34" fill="none" xmlns="http://www.w3.org/2000/svg">
<rect width="34" height="34" rx="17" fill="#F7F6FE"/>
<path d="M17.6322 20.3079H8.63691C8.50361 20.3079 8.39542 20.406 8.39542 20.5274C8.39542 20.6488 8.50361 20.7469 8.63691 20.7469H17.6322C17.7657 20.7469 17.8737 20.6488 17.8737 20.5274C17.8737 20.406 17.7657 20.3079 17.6322 20.3079Z" fill="black"/>
<path d="M24.6379 20.3079H22.6486C22.515 20.3079 22.4071 20.406 22.4071 20.5274C22.4071 20.6488 22.515 20.7469 22.6486 20.7469H24.6379C24.7714 20.7469 24.8794 20.6488 24.8794 20.5274C24.8794 20.406 24.7712 20.3079 24.6379 20.3079Z" fill="black"/>
<path d="M27.8545 11.6332C27.8545 11.3428 27.627 11.0942 27.3135 11.0427C26.1192 10.8451 25.0779 10.4374 24.2189 9.83062C23.9823 9.66356 23.6514 9.66356 23.4148 9.83062C22.5556 10.4372 21.5145 10.8451 20.3202 11.0427C20.0282 11.0909 19.813 11.3105 19.7848 11.5752H8.03754C6.98081 11.5752 6.12088 12.3568 6.12088 13.3174V14.6829V17.343V22.5296C6.12088 23.4905 6.98081 24.2723 8.03754 24.2723H25.2373C26.294 24.2723 27.1539 23.4905 27.1539 22.5296V17.343V17.0969C27.6033 16.46 27.8545 15.7375 27.8545 14.978V11.6332ZM6.60385 14.9024H19.779V14.978C19.779 15.0831 19.785 15.1876 19.7944 15.2917C19.7981 15.3314 19.8041 15.3707 19.8092 15.41C19.8171 15.4719 19.8256 15.5336 19.8367 15.5951C19.8459 15.6464 19.857 15.6974 19.8686 15.7483C19.879 15.7931 19.8901 15.8374 19.9022 15.8818C19.9188 15.9439 19.9364 16.0056 19.9565 16.0668C19.964 16.0892 19.9722 16.1112 19.9802 16.1334C20.1011 16.4804 20.2752 16.8122 20.4981 17.1232H6.60385V14.9024ZM8.03754 12.0143H19.779V14.4634H6.60385V13.3174C6.60385 12.5989 7.24692 12.0143 8.03754 12.0143ZM25.2373 23.8332H8.03754C7.24692 23.8332 6.60385 23.2486 6.60385 22.5296V17.5625H20.857C21.2545 17.9897 21.7493 18.3658 22.3288 18.6685C22.6937 18.8591 23.0914 19.0211 23.5172 19.1497C23.6993 19.2048 23.8987 19.2059 24.0827 19.157C24.0936 19.1541 24.1052 19.1528 24.1158 19.1497C24.2474 19.11 24.3766 19.0663 24.5036 19.0198C24.5937 18.9868 24.6804 18.9506 24.7676 18.9146C24.7987 18.9017 24.8308 18.8898 24.8618 18.8764C25.579 18.5677 26.1899 18.1559 26.6702 17.6712V22.5296C26.671 23.2486 26.0279 23.8332 25.2373 23.8332ZM27.3715 14.978C27.3715 15.6616 27.1404 16.3129 26.7272 16.8877C26.7222 16.8932 26.7156 16.8971 26.7113 16.9033C26.2602 17.5204 25.6026 18.0382 24.8142 18.4079C24.8069 18.4114 24.7997 18.4149 24.7925 18.4185C24.677 18.472 24.558 18.5214 24.437 18.5684C24.4174 18.5759 24.3988 18.5844 24.3793 18.5917C24.2438 18.6428 24.1057 18.6905 23.9642 18.7331C23.8688 18.7618 23.7645 18.7618 23.6695 18.7331C22.8932 18.4986 22.2199 18.1449 21.6817 17.707C21.501 17.5601 21.3358 17.4036 21.1868 17.2389C21.1798 17.2273 21.1738 17.2152 21.1644 17.2049C20.7222 16.7079 20.4361 16.1511 20.3204 15.5698C20.3163 15.5483 20.3144 15.5264 20.3105 15.5048C20.2972 15.4295 20.2844 15.354 20.2769 15.2778C20.2673 15.1786 20.2617 15.0785 20.2617 14.9777V14.6827V11.7948V11.6334C20.2617 11.5553 20.3223 11.4885 20.4061 11.4747C21.678 11.2644 22.7896 10.828 23.7108 10.1777C23.742 10.1555 23.7794 10.1448 23.8166 10.1448C23.8538 10.1448 23.8915 10.1557 23.9224 10.1777C24.8434 10.828 25.9552 11.2644 27.2271 11.4749C27.3109 11.4885 27.3715 11.5553 27.3715 11.6332V14.978Z" fill="black"/>
<path d="M25.2107 13.0961L23.289 15.3128L22.4228 14.3139C22.3404 14.2186 22.1885 14.2024 22.0837 14.2774C21.9789 14.3525 21.961 14.4904 22.0436 14.5857L23.0994 15.8034C23.145 15.8561 23.2151 15.887 23.289 15.887C23.3629 15.887 23.4329 15.8561 23.4785 15.8034L25.5898 13.3679C25.6724 13.2726 25.6545 13.1346 25.5497 13.0595C25.4449 12.9844 25.2935 13.0011 25.2107 13.0961Z" fill="black"/>
</svg>
