<svg width="34" height="34" viewBox="0 0 34 34" fill="none" xmlns="http://www.w3.org/2000/svg">
<rect width="34" height="34" rx="17" fill="#F7F6FE"/>
<path d="M24.1825 26.8676H16.9273C16.8034 26.8676 16.6996 26.7824 16.687 26.6705C16.4583 24.6382 17.1526 22.6741 18.5503 21.3653L16.7648 19.8035C16.6793 19.7357 16.5726 19.6795 16.4554 19.6417L14.4844 19.2924C14.4741 19.2907 14.4639 19.2881 14.454 19.2852C13.5373 19.006 13.0097 18.1491 13.2268 17.2925L13.2874 17.053C13.5059 16.1905 14.4323 15.6208 15.3936 15.7554L17.2977 15.9064C17.5322 15.9387 17.7438 16.0159 17.9258 16.131L21.5884 18.4769C21.6973 18.5467 21.7237 18.6835 21.6466 18.7829C21.5701 18.8821 21.4196 18.9054 21.31 18.8358L17.6484 16.4901C17.5276 16.4135 17.3861 16.3621 17.24 16.3415L15.3359 16.1905C14.6061 16.0886 13.9203 16.5112 13.7583 17.1511L13.6977 17.3906C13.5378 18.0214 13.9223 18.6523 14.5933 18.8639L16.5646 19.2134C16.575 19.2154 16.5851 19.2178 16.5953 19.2207C16.7785 19.2766 16.9456 19.3638 17.0915 19.4797L19.0642 21.2046C19.1118 21.2461 19.1386 21.3036 19.1383 21.3637C19.1381 21.4239 19.1108 21.481 19.0627 21.5224C17.6998 22.6947 16.9927 24.5168 17.1487 26.4285H23.9424C23.9629 24.665 24.2269 23.2796 24.4606 22.0515C24.7456 20.5556 24.9914 19.2635 24.7434 17.6923C24.5964 16.7604 23.9086 15.9665 22.9489 15.6206L22.0074 15.234C21.8859 15.1841 21.8318 15.054 21.8869 14.9435C21.942 14.8331 22.0847 14.7837 22.2064 14.8338L23.1373 15.2162C24.2472 15.616 25.0496 16.5422 25.2216 17.6295C25.4802 19.2696 25.2283 20.5934 24.9364 22.1259C24.6961 23.3874 24.4239 24.8169 24.4239 26.6481C24.4239 26.7695 24.316 26.8676 24.1825 26.8676Z" fill="black"/>
<path d="M15.4569 23.6461H9.82041C9.17347 23.6461 8.64703 23.1675 8.64703 22.5794V8.17657C8.64703 7.58844 9.17347 7.10986 9.82041 7.10986C9.95371 7.10986 10.0619 7.20821 10.0619 7.32939C10.0619 7.45058 9.95371 7.54893 9.82041 7.54893C9.43983 7.54893 9.13 7.83058 9.13 8.17657V22.5794C9.13 22.9253 9.43983 23.207 9.82041 23.207H15.4567C15.59 23.207 15.6981 23.3051 15.6981 23.4265C15.6981 23.5479 15.5902 23.6461 15.4569 23.6461Z" fill="black"/>
<path d="M20.6213 18.3453C20.4877 18.3453 20.3798 18.2471 20.3798 18.1257V8.17657C20.3798 7.83058 20.0702 7.54893 19.6894 7.54893H11.8023C11.669 7.54893 11.5608 7.45058 11.5608 7.32939C11.5608 7.20821 11.669 7.10986 11.8023 7.10986H19.6894C20.3366 7.10986 20.8628 7.58844 20.8628 8.17657V18.1257C20.8628 18.2469 20.7548 18.3453 20.6213 18.3453Z" fill="black"/>
<path d="M17.0225 12.1448C16.603 12.1448 16.1951 12.0103 15.8737 11.7655C15.7716 11.6878 15.758 11.5492 15.8435 11.4562C15.929 11.3631 16.0811 11.351 16.1838 11.4287C16.4183 11.6072 16.716 11.7056 17.0225 11.7056C17.7433 11.7056 18.3298 11.1723 18.3298 10.517C18.3298 9.86171 17.7433 9.32847 17.0225 9.32847C16.3016 9.32847 15.7151 9.86171 15.7151 10.517C15.7151 10.6382 15.6069 10.7365 15.4736 10.7365C15.3403 10.7365 15.2321 10.6382 15.2321 10.517C15.2321 9.61957 16.0353 8.8894 17.0225 8.8894C18.0094 8.8894 18.8128 9.61957 18.8128 10.517C18.8128 11.4145 18.0094 12.1448 17.0225 12.1448Z" fill="black"/>
<path d="M11.8023 21.0587C11.669 21.0587 11.5608 20.9605 11.5608 20.8391V7.32939C11.5608 7.20821 11.669 7.10986 11.8023 7.10986C11.9356 7.10986 12.0438 7.20821 12.0438 7.32939V20.8391C12.0438 20.9605 11.9356 21.0587 11.8023 21.0587Z" fill="black"/>
</svg>
