<svg width="34" height="34" viewBox="0 0 34 34" fill="none" xmlns="http://www.w3.org/2000/svg">
<rect width="34" height="34" rx="17" fill="#F7F6FE"/>
<path fill-rule="evenodd" clip-rule="evenodd" d="M16.9661 12.8571C17.7213 12.8571 18.4456 12.5561 18.9796 12.0203C19.5136 11.4845 19.8136 10.7578 19.8136 10C19.8136 9.24224 19.5136 8.51551 18.9796 7.97969C18.4456 7.44388 17.7213 7.14286 16.9661 7.14286C16.2109 7.14286 15.4866 7.44388 14.9526 7.97969C14.4186 8.51551 14.1186 9.24224 14.1186 10C14.1186 10.7578 14.4186 11.4845 14.9526 12.0203C15.4866 12.5561 16.2109 12.8571 16.9661 12.8571ZM16.9661 15C18.2877 15 19.5551 14.4732 20.4897 13.5355C21.4242 12.5979 21.9492 11.3261 21.9492 10C21.9492 8.67392 21.4242 7.40215 20.4897 6.46447C19.5551 5.52678 18.2877 5 16.9661 5C15.6445 5 14.3771 5.52678 13.4426 6.46447C12.508 7.40215 11.9831 8.67392 11.9831 10C11.9831 11.3261 12.508 12.5979 13.4426 13.5355C14.3771 14.4732 15.6445 15 16.9661 15ZM18.3898 16.75C18.3938 16.486 18.295 16.2309 18.1145 16.0389C17.934 15.8468 17.686 15.7329 17.4231 15.7214C17.2708 15.7168 17.1185 15.7144 16.9661 15.7143C11.4847 15.7143 7 18.5714 7 21.4286C7 22.3758 7.375 23.2842 8.0425 23.954C8.71 24.6237 9.61533 25 10.5593 25H23.0169C23.3001 25 23.5717 24.8871 23.772 24.6862C23.9722 24.4853 24.0847 24.2127 24.0847 23.9286C24.0847 23.6444 23.9722 23.3719 23.772 23.171C23.5717 22.97 23.3001 22.8571 23.0169 22.8571H10.5593C10.1817 22.8571 9.81959 22.7066 9.55259 22.4387C9.28559 22.1708 9.13559 21.8075 9.13559 21.4286C9.13559 21.1371 9.44881 20.2729 11.0149 19.3443C12.4643 18.4857 14.5742 17.8571 16.9661 17.8571C17.0496 17.8571 17.1327 17.8581 17.2153 17.86C17.8445 17.8714 18.3898 17.3814 18.3898 16.75ZM25.1525 15C25.1525 14.7158 25.04 14.4433 24.8398 14.2424C24.6395 14.0415 24.3679 13.9286 24.0847 13.9286C23.8015 13.9286 23.53 14.0415 23.3297 14.2424C23.1294 14.4433 23.0169 14.7158 23.0169 15V16.7857H21.2373C20.9541 16.7857 20.6825 16.8986 20.4822 17.0995C20.282 17.3005 20.1695 17.573 20.1695 17.8571C20.1695 18.1413 20.282 18.4138 20.4822 18.6148C20.6825 18.8157 20.9541 18.9286 21.2373 18.9286H23.0169V20.7143C23.0169 20.9984 23.1294 21.271 23.3297 21.4719C23.53 21.6728 23.8015 21.7857 24.0847 21.7857C24.3679 21.7857 24.6395 21.6728 24.8398 21.4719C25.04 21.271 25.1525 20.9984 25.1525 20.7143V18.9286H26.9322C27.2154 18.9286 27.487 18.8157 27.6873 18.6148C27.8875 18.4138 28 18.1413 28 17.8571C28 17.573 27.8875 17.3005 27.6873 17.0995C27.487 16.8986 27.2154 16.7857 26.9322 16.7857H25.1525V15Z" fill="black"/>
</svg>
