<svg width="22" height="20" viewBox="0 0 22 20" fill="none" xmlns="http://www.w3.org/2000/svg">
<path d="M17.346 3.37893V1.62268H14.2888V3.37893H7.68659V1.62268H4.62939V3.37893H0.12088V7.84595V18.3551H21.8545V7.84573V3.37893H17.346ZM15.2547 2.50081H16.38V4.73432H15.2547V2.50081ZM5.59533 2.50081H6.72065V4.73432H5.59533V2.50081ZM20.8885 17.4768H1.08682V7.84573H20.8885V17.4768Z" fill="black"/>
<path d="M10.9877 8.78137C8.65373 8.78137 6.7617 10.5014 6.7617 12.6232C6.7617 14.7449 8.65373 16.465 10.9877 16.465C13.3216 16.465 15.2137 14.7449 15.2137 12.6232C15.2137 10.5014 13.3216 8.78137 10.9877 8.78137ZM12.3989 12.9845L12.2915 13.0556C12.2688 13.0677 12.2463 13.0873 12.2236 13.0996H12.0768H12.0758H10.6255V12.6611V11.2425V10.5332C10.6247 10.5174 10.6255 10.5016 10.6255 10.4858V10.3675C10.6281 10.3638 10.6298 10.3598 10.6337 10.3561L10.7759 10.1787C10.8727 10.0606 10.9838 9.94225 11.1084 9.82415C11.233 9.94225 11.3441 10.0606 11.4409 10.1787L11.5832 10.3561C11.587 10.36 11.5887 10.3638 11.5914 10.3675V10.4858C11.5914 10.5016 11.5921 10.5174 11.5914 10.5332V11.2425V12.2221H11.9688H12.0461C12.0654 12.2227 12.0845 12.2225 12.1038 12.2221H12.2221C12.2453 12.2344 12.2683 12.2544 12.2915 12.2669L12.3989 12.338C12.5424 12.4315 12.6858 12.5411 12.829 12.6611C12.6856 12.7812 12.5424 12.891 12.3989 12.9845Z" fill="black"/>
</svg>
