<svg width="34" height="34" viewBox="0 0 34 34" fill="none" xmlns="http://www.w3.org/2000/svg">
<rect width="34" height="34" rx="17" fill="#F7F6FE"/>
<path d="M26.46 20.2024H22.641C22.2695 20.2024 21.9671 19.9383 21.9671 19.613V18.4109C21.9671 18.0859 22.2693 17.8213 22.641 17.8213H26.46C26.6057 17.8213 26.7235 17.9243 26.7235 18.0518V19.9717C26.7235 20.0994 26.6057 20.2024 26.46 20.2024ZM22.641 18.2825C22.5598 18.2825 22.494 18.3402 22.494 18.4112V19.6133C22.494 19.684 22.5598 19.7416 22.641 19.7416H26.1966V18.2825H22.641Z" fill="black"/>
<path d="M26.46 24.8611H10.9504C10.0126 24.8611 9.24966 24.1935 9.24966 23.3729V13.636C9.24966 13.5088 9.36768 13.4055 9.5131 13.4055C9.65852 13.4055 9.77654 13.5088 9.77654 13.636V23.3729C9.77654 23.9393 10.3032 24.4 10.9504 24.4H26.1966V14.6507C26.1966 14.5235 26.3144 14.4202 26.46 14.4202C26.6057 14.4202 26.7235 14.5235 26.7235 14.6507V24.6306C26.7235 24.758 26.6057 24.8611 26.46 24.8611Z" fill="black"/>
<path d="M26.46 14.8813H10.6728C9.88797 14.8813 9.24966 14.3228 9.24966 13.6361C9.24966 12.9494 9.88797 12.3909 10.6728 12.3909H14.9531C15.0985 12.3909 15.2165 12.4941 15.2165 12.6214C15.2165 12.7486 15.0985 12.8519 14.9531 12.8519H10.6728C10.1785 12.8519 9.77654 13.2036 9.77654 13.6361C9.77654 14.0685 10.1785 14.4203 10.6728 14.4203H26.1966V12.8519H23.9869C23.8412 12.8519 23.7234 12.7486 23.7234 12.6214C23.7234 12.4941 23.8412 12.3909 23.9869 12.3909H26.46C26.6057 12.3909 26.7235 12.4941 26.7235 12.6214V14.6508C26.7235 14.7782 26.6057 14.8813 26.46 14.8813Z" fill="black"/>
<path d="M26.46 13.8665H10.9412C10.7958 13.8665 10.6778 13.7633 10.6778 13.636C10.6778 13.5088 10.7958 13.4055 10.9412 13.4055H26.46C26.6057 13.4055 26.7235 13.5088 26.7235 13.636C26.7235 13.7633 26.6057 13.8665 26.46 13.8665Z" fill="black"/>
<path d="M24.5833 19.2425H23.3907C23.245 19.2425 23.1273 19.1395 23.1273 19.012C23.1273 18.8845 23.245 18.7815 23.3907 18.7815H24.5833C24.729 18.7815 24.8467 18.8845 24.8467 19.012C24.8467 19.1395 24.729 19.2425 24.5833 19.2425Z" fill="black"/>
<path d="M13.6254 11.2261C12.369 11.2261 11.3472 10.3318 11.3472 9.23269C11.3472 8.13363 12.369 7.23926 13.6254 7.23926C14.8817 7.23926 15.9036 8.1334 15.9036 9.23269C15.9036 10.332 14.8814 11.2261 13.6254 11.2261ZM13.6254 7.70027C12.6596 7.70027 11.874 8.38765 11.874 9.23269C11.874 10.0777 12.6596 10.7651 13.6254 10.7651C14.5911 10.7651 15.3767 10.0777 15.3767 9.23269C15.3767 8.38765 14.5909 7.70027 13.6254 7.70027Z" fill="black"/>
<path d="M24.4924 13.8668C24.3915 13.8668 24.2956 13.8159 24.2516 13.7304L22.3338 9.98231L12.471 13.8465C12.3382 13.8986 12.1822 13.8465 12.123 13.7304C12.0637 13.6142 12.123 13.4777 12.2557 13.4259L22.3594 9.46736C22.4226 9.44246 22.4956 9.44062 22.5609 9.46229C22.6262 9.48419 22.6789 9.52775 22.7076 9.58353L24.7332 13.542C24.7927 13.6582 24.7332 13.7947 24.6002 13.8465C24.5651 13.8601 24.5282 13.8668 24.4924 13.8668Z" fill="black"/>
<path d="M15.545 13.8668C15.4444 13.8668 15.3482 13.8159 15.3045 13.7304C15.245 13.6142 15.3045 13.4777 15.4373 13.4259L21.7034 10.9707C21.8362 10.9184 21.9921 10.9709 22.0514 11.0869L23.308 13.542C23.3675 13.6582 23.308 13.7947 23.1752 13.8465C23.0411 13.8986 22.8862 13.8465 22.827 13.7304L21.6784 11.4857L15.6528 13.8465C15.6177 13.8601 15.5811 13.8668 15.545 13.8668Z" fill="black"/>
<path d="M19.3375 8.10234C18.0811 8.10234 17.0593 7.20797 17.0593 6.10891C17.0593 5.00985 18.0811 4.11548 19.3375 4.11548C20.5938 4.11548 21.6154 5.00962 21.6154 6.10891C21.6154 7.2082 20.5935 8.10234 19.3375 8.10234ZM19.3375 4.57649C18.3717 4.57649 17.5861 5.26387 17.5861 6.10891C17.5861 6.95395 18.3717 7.64133 19.3375 7.64133C20.303 7.64133 21.0885 6.95395 21.0885 6.10891C21.0885 5.26387 20.303 4.57649 19.3375 4.57649Z" fill="black"/>
</svg>
