<svg width="34" height="34" viewBox="0 0 34 34" fill="none" xmlns="http://www.w3.org/2000/svg">
<rect width="34" height="34" rx="17" fill="#F7F6FE"/>
<path d="M25.4541 26.2401L25.2847 26.0918L26.63 24.9138L27.7306 23.95H26.2677H19.9701V23.8H26.2677H27.7306L26.63 22.8362L25.2847 21.6582L25.4541 21.5099L28.1636 23.875L25.4541 26.2401ZM25.1301 12.7H19.9701V8.25V7.7H19.4201H9.42751H8.87751V8.25V25.75V26.3H9.42751H21.3323L21.5036 26.45H8.55V7.55H20.2282L26.0076 12.6108V18.3166L25.6801 18.0298V13.25V12.7H25.1301ZM20.2976 12V12.55H20.8476H24.1152H25.5782L24.4776 11.5862L21.2099 8.72489L20.2976 7.92601V9.13867V12Z" fill="black" stroke="black" stroke-width="1.1"/>
</svg>
