<svg width="69" height="34" viewBox="0 0 69 34" fill="none" xmlns="http://www.w3.org/2000/svg">
<rect width="34" height="34" rx="17" fill="#F7F6FE"/>
<path d="M23.4141 26.2315C23.2149 26.2315 23.0138 26.1844 22.8218 26.0876C22.2429 25.7955 21.869 25.1136 21.869 24.3501V23.5918H14.4716C13.8826 23.5918 13.405 23.0099 13.405 22.2923C13.405 21.5746 13.8826 20.9927 14.4716 20.9927H22.4591C23.2429 20.9927 23.8919 21.7078 23.9898 22.6308L26.7549 19.2621L23.9898 15.893C23.8917 16.816 23.2426 17.5311 22.4589 17.5311H17.6852C17.0962 17.5311 16.6186 16.9492 16.6186 16.2315C16.6186 15.5138 17.0962 14.932 17.6852 14.932H21.869V14.1737C21.869 13.4102 22.2429 12.7283 22.8218 12.4362C23.401 12.1448 24.0607 12.3043 24.5039 12.8443L28.6805 17.9323C29.2823 18.6656 29.2823 19.8585 28.6805 20.5918L24.5037 25.6798C24.2079 26.0405 23.8149 26.2315 23.4141 26.2315Z" fill="black"/>
<path d="M10.8503 20.1708C10.4495 20.1708 10.0567 19.9798 9.76069 19.6195L5.58388 14.5308C5.29242 14.176 5.13188 13.7037 5.13188 13.2011C5.13188 12.6985 5.29268 12.2261 5.58415 11.871L9.76043 6.78294C10.2034 6.2433 10.8642 6.08378 11.4426 6.37553C12.0215 6.6676 12.3954 7.34954 12.3954 8.11302V8.8713H19.793C20.3821 8.8713 20.8597 9.45317 20.8597 10.1708C20.8597 10.8885 20.3821 11.4704 19.793 11.4704H11.8055C11.0218 11.4704 10.3727 10.755 10.2748 9.83231L7.50949 13.2014L10.2746 16.5701C10.3724 15.6474 11.0215 14.932 11.8052 14.932H17.685C18.2741 14.932 18.7517 15.5139 18.7517 16.2316C18.7517 16.9493 18.2741 17.5311 17.685 17.5311H12.3954V18.2894C12.3954 19.0526 12.0215 19.7345 11.4426 20.0266C11.2506 20.1237 11.0495 20.1708 10.8503 20.1708Z" fill="black"/>
</svg>
