<svg width="34" height="34" viewBox="0 0 34 34" fill="none" xmlns="http://www.w3.org/2000/svg">
<rect width="34" height="34" rx="17" fill="#F7F6FE"/>
<path d="M24.3959 19.5676C24.3959 19.7571 24.3328 19.9389 24.2206 20.0729C24.1083 20.2068 23.9561 20.2821 23.7974 20.2821H6.09477L9.85313 24.7832C9.91038 24.8474 9.95601 24.9249 9.98721 25.0109C10.0184 25.0969 10.0345 25.1896 10.0345 25.2834C10.0345 25.3771 10.0184 25.4698 9.98721 25.5559C9.95601 25.6419 9.91038 25.7193 9.85313 25.7835C9.7994 25.8518 9.73451 25.9063 9.66246 25.9436C9.5904 25.9808 9.51272 26 9.43421 26C9.35569 26 9.27801 25.9808 9.20596 25.9436C9.13391 25.9063 9.06901 25.8518 9.01528 25.7835L4.22756 20.0678C4.14925 20.0157 4.08649 19.9358 4.04802 19.8391C4.01635 19.7536 4 19.6612 4 19.5676C4 19.4741 4.01635 19.3817 4.04802 19.2962C4.07354 19.207 4.11908 19.1279 4.17968 19.0675C4.23546 18.9642 4.32038 18.8882 4.41907 18.8532C4.49383 18.8319 4.57172 18.8319 4.64648 18.8532H23.7974C23.9561 18.8532 24.1083 18.9285 24.2206 19.0624C24.3328 19.1964 24.3959 19.3782 24.3959 19.5676ZM27.9866 12.423C28.0045 12.5123 28.0045 12.6052 27.9866 12.6945C27.9228 12.8666 27.8076 13.0041 27.6635 13.0803C27.5887 13.1016 27.5108 13.1016 27.4361 13.0803H8.23728C8.07855 13.0803 7.92633 13.005 7.8141 12.871C7.70186 12.7371 7.63881 12.5553 7.63881 12.3658C7.63881 12.1764 7.70186 11.9946 7.8141 11.8606C7.92633 11.7267 8.07855 11.6514 8.23728 11.6514H25.9399L22.1815 7.20741C22.0704 7.07477 22.008 6.89487 22.008 6.70728C22.008 6.5197 22.0704 6.3398 22.1815 6.20716C22.2926 6.07452 22.4433 6 22.6005 6C22.7576 6 22.9083 6.07452 23.0194 6.20716L27.8071 11.9229C27.8677 11.9833 27.9132 12.0623 27.9388 12.1515C27.9727 12.2361 27.9891 12.3292 27.9866 12.423Z" fill="black"/>
</svg>
