<svg width="34" height="34" viewBox="0 0 34 34" fill="none" xmlns="http://www.w3.org/2000/svg">
<rect width="34" height="34" rx="17" fill="#F7F6FE"/>
<g clip-path="url(#clip0_363_7538)">
<path d="M11.0018 11.2694H11.7892V11.9584C11.7892 12.0857 11.9072 12.1889 12.0526 12.1889C12.198 12.1889 12.3161 12.0857 12.3161 11.9584V11.2694H13.1035C13.2489 11.2694 13.3669 11.1662 13.3669 11.0389C13.3669 10.9117 13.2489 10.8084 13.1035 10.8084H12.3161V10.1194C12.3161 9.99218 12.198 9.88892 12.0526 9.88892C11.9072 9.88892 11.7892 9.99218 11.7892 10.1194V10.8084H11.0018C10.8564 10.8084 10.7383 10.9117 10.7383 11.0389C10.7383 11.1662 10.8561 11.2694 11.0018 11.2694Z" fill="black"/>
<path d="M15.0124 11.2694H20.765C20.9107 11.2694 21.0285 11.1661 21.0285 11.0389C21.0285 10.9116 20.9107 10.8083 20.765 10.8083H15.0124C14.8669 10.8083 14.7489 10.9116 14.7489 11.0389C14.7489 11.1661 14.8669 11.2694 15.0124 11.2694Z" fill="black"/>
<path d="M11.0018 13.5655H20.7653C20.911 13.5655 21.0287 13.4622 21.0287 13.335C21.0287 13.2078 20.911 13.1045 20.7653 13.1045H11.0018C10.8564 13.1045 10.7383 13.2078 10.7383 13.335C10.7383 13.4622 10.8561 13.5655 11.0018 13.5655Z" fill="black"/>
<path d="M20.7653 15.2646H16.2608C16.1154 15.2646 15.9973 15.3679 15.9973 15.4952C15.9973 15.6224 16.1154 15.7257 16.2608 15.7257H20.7653C20.911 15.7257 21.0287 15.6224 21.0287 15.4952C21.0287 15.3679 20.9107 15.2646 20.7653 15.2646Z" fill="black"/>
<path d="M12.9807 26.4339C14.4294 26.4339 15.6077 25.4026 15.6077 24.1353C15.6077 22.8677 14.4291 21.8364 12.9807 21.8364C11.5323 21.8364 10.3537 22.8677 10.3537 24.1353C10.354 25.4026 11.5323 26.4339 12.9807 26.4339ZM12.9807 22.2974C14.1388 22.2974 15.0808 23.1217 15.0808 24.1353C15.0808 25.1486 14.1388 25.9729 12.9807 25.9729C11.8226 25.9729 10.8806 25.1486 10.8806 24.1353C10.8809 23.1217 11.8229 22.2974 12.9807 22.2974Z" fill="black"/>
<path d="M13.07 24.9087C12.9125 24.9613 12.7355 24.8905 12.6762 24.752C12.6251 24.6328 12.4733 24.5731 12.3369 24.6171C12.2007 24.6619 12.1317 24.7949 12.1828 24.914C12.2768 25.1332 12.4794 25.2898 12.7173 25.3541V25.4343C12.7173 25.5618 12.8353 25.6648 12.9807 25.6648C13.1261 25.6648 13.2442 25.5618 13.2442 25.4343V25.343C13.2479 25.3419 13.2513 25.3416 13.255 25.3405C13.4633 25.272 13.6285 25.1369 13.7207 24.9597C13.8129 24.7824 13.8206 24.5846 13.7423 24.4023C13.6496 24.1861 13.451 24.0247 13.2136 23.9643L12.9128 23.8684C12.8195 23.8445 12.7465 23.7855 12.7125 23.7066C12.6533 23.5683 12.7339 23.4137 12.8917 23.3618C13.0497 23.3106 13.2262 23.3802 13.2855 23.5188C13.3366 23.6382 13.4886 23.6981 13.6248 23.6536C13.761 23.6089 13.83 23.4759 13.7789 23.3567C13.6849 23.1377 13.4815 22.9847 13.2442 22.9199V22.8365C13.2442 22.709 13.1261 22.606 12.9807 22.606C12.8353 22.606 12.7173 22.709 12.7173 22.8365V22.9277C12.7136 22.9289 12.7102 22.9291 12.7065 22.9303C12.2768 23.0716 12.0582 23.4925 12.2191 23.8687C12.3119 24.0849 12.5105 24.246 12.7478 24.3064L13.0487 24.4023C13.1419 24.4263 13.2149 24.4853 13.2489 24.5646C13.2776 24.6314 13.2747 24.704 13.241 24.7693C13.2073 24.8345 13.1467 24.8838 13.07 24.9087Z" fill="black"/>
<path d="M25.1207 23.8963L24.7967 23.7932C24.6889 23.7653 24.6046 23.6971 24.5657 23.6058C24.5325 23.5286 24.5359 23.4449 24.5746 23.3698C24.6136 23.2946 24.6837 23.2375 24.7719 23.2084C24.8602 23.1794 24.9563 23.1821 25.0419 23.2165C25.1276 23.2504 25.1932 23.3117 25.2261 23.3889C25.2769 23.5081 25.4292 23.5685 25.5651 23.524C25.7016 23.4795 25.7704 23.3463 25.7195 23.2273C25.6371 23.0346 25.4737 22.8818 25.2598 22.7967C25.2208 22.7813 25.1803 22.7711 25.1397 22.7608V22.6575C25.1397 22.53 25.0219 22.427 24.8762 22.427C24.7306 22.427 24.6128 22.53 24.6128 22.6575V22.7705C24.6041 22.773 24.5954 22.7737 24.5867 22.7765C24.1323 22.9256 23.9015 23.3702 24.072 23.7679C24.17 23.9958 24.3799 24.1664 24.6315 24.2307L24.9555 24.3338C25.0633 24.3617 25.1476 24.4299 25.1866 24.5212C25.2198 24.5984 25.2163 24.6821 25.1776 24.7572C25.1386 24.8321 25.0686 24.8895 24.98 24.9183C24.8915 24.9476 24.7962 24.9446 24.7103 24.9105C24.6247 24.8764 24.5591 24.8151 24.5261 24.7378C24.4753 24.6189 24.323 24.5583 24.1871 24.6028C24.0506 24.6473 23.9819 24.7805 24.0327 24.8994C24.1152 25.0921 24.2785 25.245 24.4924 25.33C24.5314 25.3457 24.5722 25.3547 24.6128 25.3651V25.4692C24.6128 25.5967 24.7306 25.6998 24.8762 25.6998C25.0219 25.6998 25.1397 25.5967 25.1397 25.4692V25.3561C25.1481 25.3535 25.1568 25.3526 25.1652 25.3498C25.3855 25.2777 25.5601 25.1348 25.6573 24.9476C25.7545 24.7604 25.7627 24.5514 25.6803 24.3587C25.5825 24.1309 25.3726 23.9606 25.1207 23.8963Z" fill="black"/>
<path d="M25.6436 20.6604V20.5682C25.6436 20.3979 25.5936 20.2488 25.5119 20.134C25.5936 20.0171 25.6436 19.8659 25.6436 19.6935V19.1373C25.6436 18.9669 25.5936 18.8178 25.5119 18.703C25.5936 18.5861 25.6436 18.4349 25.6436 18.2625V17.7063C25.6436 17.3296 25.4076 17.0456 25.0952 17.0456H22.6663V9.70948H26.5288C26.6745 9.70948 26.7922 9.60621 26.7922 9.47897C26.7922 8.35663 25.7485 7.44336 24.4658 7.44336H11.4955C10.2125 7.44336 9.16905 8.3564 9.16905 9.47897V16.9502L8.72226 17.6166L7.64216 17.3729C7.5742 17.3573 7.50254 17.3665 7.44248 17.3976C7.4293 17.4045 7.42035 17.4154 7.40876 17.4239C7.39427 17.4345 7.3782 17.4435 7.36661 17.4568C7.34579 17.4811 7.32999 17.5087 7.3213 17.5384L6.37872 20.7377H5.3953C5.24989 20.7377 5.13187 20.8407 5.13187 20.9682V22.5697V25.7007V27.3023C5.13187 27.4298 5.24989 27.5328 5.3953 27.5328H7.22567H18.7613C18.7798 27.5328 18.7961 27.5268 18.8135 27.5236H24.666C24.6663 27.5236 24.6663 27.5236 24.6665 27.5236C24.7364 27.5268 24.8054 27.5328 24.8762 27.5328C27.0625 27.5328 28.8412 25.9764 28.8412 24.0634C28.8412 22.3803 27.4637 20.9742 25.6436 20.6604ZM24.5072 20.6104C24.4603 20.6143 24.4144 20.6206 24.3681 20.6259C24.2946 20.6342 24.2213 20.6434 24.1484 20.6554C24.0933 20.6644 24.0393 20.6747 23.985 20.6858C23.9218 20.6987 23.8588 20.7128 23.7964 20.7282C23.7416 20.7418 23.6868 20.7556 23.6331 20.7713C23.5685 20.79 23.5053 20.8112 23.4421 20.8326C23.3947 20.8488 23.347 20.8638 23.3006 20.8815C23.2082 20.9165 23.1178 20.9553 23.0285 20.9963C23.0137 21.0032 22.9982 21.0087 22.9837 21.0157C22.8749 21.0673 22.7693 21.124 22.666 21.1846C22.6563 21.1904 22.647 21.1971 22.637 21.2028C22.5641 21.2466 22.4916 21.2909 22.4218 21.3388H18.7922C18.769 21.3121 18.7302 21.2383 18.7302 21.1242V20.5682C18.7302 20.4643 18.7645 20.3958 18.7861 20.3689H25.0609C25.0825 20.3956 25.1168 20.4643 25.1168 20.5682V20.6017C25.0335 20.5966 24.9542 20.5941 24.8762 20.5941C24.7527 20.5941 24.6294 20.6003 24.5072 20.6104ZM21.7669 21.9172C21.7205 21.9688 21.6749 22.0209 21.632 22.0748C21.5993 22.1156 21.5683 22.1574 21.5374 22.1995C21.5085 22.2394 21.4805 22.2795 21.4534 22.3203C21.4176 22.3738 21.3831 22.4278 21.3507 22.4831C21.3349 22.51 21.3206 22.5372 21.3056 22.5647C21.2685 22.6322 21.2321 22.6997 21.2 22.7696H18.7922C18.769 22.7429 18.7302 22.6693 18.7302 22.5552V21.9992C18.7302 21.8953 18.7645 21.8268 18.7861 21.7998H21.8728C21.8609 21.8118 21.8507 21.8252 21.8391 21.8374C21.814 21.8632 21.7909 21.8904 21.7669 21.9172ZM18.2092 21.1987C18.221 21.3404 18.2655 21.4656 18.3351 21.5652C18.2534 21.68 18.2034 21.8291 18.2034 21.9995V22.5555C18.2034 22.7279 18.2534 22.8791 18.3351 22.996C18.2534 23.1107 18.2034 23.2601 18.2034 23.4305V23.9864C18.2034 24.1589 18.2534 24.3101 18.3351 24.4269C18.2534 24.5417 18.2034 24.6911 18.2034 24.8615V25.4174C18.2034 25.5899 18.2534 25.7411 18.3351 25.8579C18.2534 25.9727 18.2034 26.1219 18.2034 26.2922V26.8484C18.2034 26.928 18.2158 27.0022 18.235 27.072H7.47066C7.35159 26.2459 6.60264 25.5908 5.65874 25.4864V22.7841C6.60264 22.6797 7.35159 22.0246 7.47066 21.1987H18.2092ZM18.7302 19.6935V19.1373C18.7302 19.0333 18.7645 18.9648 18.7861 18.9379H25.0609C25.0825 18.9646 25.1168 19.0333 25.1168 19.1373V19.6935C25.1168 19.8076 25.078 19.8809 25.0549 19.9078H18.8575C18.8488 19.9048 18.8419 19.8993 18.8327 19.8972L18.7766 19.8846C18.7547 19.8484 18.7302 19.7845 18.7302 19.6935ZM21.0243 23.2553C20.994 23.3657 20.97 23.4779 20.9521 23.5923C20.9481 23.6167 20.9426 23.6407 20.9394 23.6651C20.9223 23.796 20.9112 23.9286 20.9112 24.0634C20.9112 24.1079 20.9126 24.1538 20.9149 24.2006H18.7924C18.7692 24.1738 18.7305 24.1003 18.7305 23.9862V23.4302C18.7305 23.3263 18.7648 23.2576 18.7864 23.2306H21.0298C21.0272 23.2387 21.0264 23.247 21.0243 23.2553ZM18.7302 25.4172V24.8612C18.7302 24.7573 18.7645 24.6886 18.7861 24.6616H20.9718C20.9742 24.6736 20.9779 24.6853 20.9805 24.6973C20.9913 24.7485 21.0042 24.7988 21.0177 24.8492C21.0306 24.8983 21.0453 24.9467 21.0606 24.9951C21.0759 25.0433 21.0909 25.0915 21.1086 25.1388C21.1391 25.2208 21.1728 25.3017 21.2102 25.3815C21.2253 25.4133 21.2419 25.4442 21.2579 25.4755C21.2845 25.5279 21.3104 25.5806 21.3401 25.6316H18.7924C18.7692 25.6048 18.7302 25.5315 18.7302 25.4172ZM25.1168 17.7065V18.2627C25.1168 18.3768 25.078 18.4501 25.0549 18.4771H18.7922C18.769 18.4503 18.7302 18.3768 18.7302 18.2627V17.7065C18.7302 17.6025 18.7645 17.5338 18.7861 17.5069H25.0609C25.0825 17.5338 25.1168 17.6025 25.1168 17.7065ZM26.2459 9.24847H22.6855C22.8133 8.48917 23.563 7.90437 24.4658 7.90437C25.3686 7.90437 26.1181 8.48917 26.2459 9.24847ZM9.69592 9.47897C9.69592 8.61065 10.5031 7.90437 11.4955 7.90437H22.9935C22.4724 8.27803 22.1394 8.84485 22.1394 9.47897V17.0459H18.7516C18.4389 17.0459 18.2034 17.3298 18.2034 17.7065V18.2627C18.2034 18.2924 18.2073 18.3203 18.2102 18.3487L11.0152 14.6534C10.9849 14.6377 10.9517 14.6281 10.9175 14.6239C10.8859 14.6202 10.8545 14.6225 10.824 14.6287C10.8211 14.6292 10.8182 14.6285 10.8155 14.6292C10.8137 14.6297 10.8124 14.6308 10.8105 14.6313C10.7794 14.6389 10.7499 14.6509 10.7239 14.6679C10.6962 14.6861 10.6727 14.7087 10.6548 14.7355L9.72832 16.1167C9.72832 16.1169 9.72832 16.1169 9.72806 16.1171L9.69618 16.1646L9.69592 9.47897ZM10.9757 15.1677L12.0808 15.7352C11.6543 16.1789 10.947 16.34 10.3271 16.1347L10.9757 15.1677ZM10.0581 16.5355C10.3232 16.6351 10.6019 16.684 10.8782 16.684C11.5136 16.684 12.1343 16.4302 12.5389 15.9705L18.2397 18.8982C18.2173 18.972 18.2036 19.052 18.2036 19.1375V19.6937C18.2036 19.7154 18.2071 19.7356 18.2086 19.7566L9.41536 17.7731C9.41536 17.7731 9.4151 17.7731 9.4151 17.7729L9.25308 17.7365L10.0581 16.5355ZM7.76571 17.8771L8.78179 18.1062C8.78206 18.1062 8.78232 18.1067 8.78285 18.1067L9.00651 18.1571C8.73595 18.6866 8.10818 19.0107 7.4459 18.9628L7.76571 17.8771ZM7.31287 19.4136C7.40112 19.4235 7.48884 19.4284 7.5763 19.4284C8.4222 19.4284 9.19776 18.9729 9.51652 18.2719L18.2713 20.2469C18.2292 20.3414 18.2036 20.4493 18.2036 20.5682V20.7374H7.22567H6.92271L7.31287 19.4136ZM5.65874 21.1987H6.9401C6.82893 21.7703 6.31207 22.2226 5.65874 22.3199V21.1987ZM5.65874 27.0718V25.9506C6.31207 26.0479 6.82893 26.5001 6.9401 27.0718H5.65874ZM18.7922 27.0626C18.769 27.0358 18.7302 26.9623 18.7302 26.8482V26.292C18.7302 26.1883 18.7645 26.1196 18.7861 26.0926H21.6607C21.6858 26.1228 21.715 26.15 21.7411 26.1795C21.7843 26.2284 21.828 26.2765 21.8741 26.3233C21.9126 26.3623 21.9521 26.3999 21.9924 26.4372C22.049 26.49 22.1075 26.5409 22.1678 26.5903C22.2002 26.6168 22.2326 26.643 22.2661 26.6684C22.3446 26.7286 22.426 26.7857 22.5098 26.8406C22.5282 26.8526 22.5459 26.8648 22.5646 26.8763C22.6702 26.9429 22.7793 27.0052 22.8923 27.0626H18.7922ZM24.8762 27.0718C24.8106 27.0718 24.7464 27.0663 24.6816 27.0633C24.6813 27.0633 24.681 27.063 24.6808 27.063C24.0182 27.0303 23.3855 26.8272 22.8575 26.4937C22.843 26.4845 22.8288 26.475 22.8143 26.4656C22.7329 26.4123 22.6549 26.3554 22.5791 26.2959C22.554 26.2761 22.5285 26.2567 22.504 26.2362C22.44 26.183 22.3794 26.1265 22.3201 26.0691C22.294 26.0435 22.2664 26.0193 22.2411 25.993C22.1644 25.9133 22.0914 25.83 22.0243 25.7429C22.0093 25.7233 21.9969 25.7023 21.9824 25.6825C21.9281 25.6083 21.8765 25.5327 21.8299 25.4543C21.8127 25.4255 21.7977 25.3958 21.7814 25.3665C21.7405 25.292 21.7023 25.2167 21.6686 25.1394C21.6568 25.1127 21.6457 25.0857 21.6346 25.0585C21.6004 24.9728 21.5704 24.8857 21.5451 24.7976C21.5393 24.7773 21.5327 24.7575 21.5272 24.737C21.4984 24.6275 21.4755 24.5168 21.461 24.4053C21.4568 24.3716 21.4545 24.3412 21.4513 24.3094C21.4437 24.228 21.4371 24.1466 21.4371 24.0637C21.4371 23.9712 21.4437 23.8799 21.4529 23.7896C21.4579 23.7437 21.4655 23.6981 21.4729 23.6524C21.4792 23.6123 21.4858 23.572 21.494 23.5323C21.5066 23.4715 21.5216 23.4111 21.5385 23.3507C21.544 23.3309 21.5501 23.3111 21.5559 23.2912C21.5772 23.2216 21.6007 23.152 21.6281 23.0831C21.6302 23.0778 21.6325 23.0725 21.6346 23.0672C21.6834 22.9457 21.7413 22.8277 21.8067 22.7136C21.8111 22.706 21.8151 22.6979 21.8196 22.6903C21.887 22.5748 21.9632 22.4637 22.0467 22.3572C22.0575 22.3434 22.0698 22.3307 22.0809 22.3171C22.1489 22.2337 22.2224 22.1541 22.2998 22.0771C22.3293 22.0479 22.3588 22.0188 22.3897 21.9907C22.4671 21.9195 22.5485 21.8517 22.6339 21.7872C22.7342 21.7116 22.8378 21.6392 22.9476 21.5739C22.9616 21.5656 22.9766 21.5583 22.9908 21.5502C23.0627 21.5087 23.1362 21.4693 23.2118 21.4326C23.2453 21.4165 23.2795 21.402 23.3133 21.387C23.371 21.3612 23.4289 21.3361 23.4885 21.313C23.5322 21.2962 23.5767 21.2807 23.6212 21.2653C23.6734 21.2473 23.7261 21.2303 23.7793 21.2146C23.828 21.2003 23.8773 21.1867 23.9268 21.1742C23.9798 21.1609 24.0335 21.1491 24.0875 21.1381C24.1368 21.1279 24.1858 21.1178 24.2356 21.1095C24.2977 21.0991 24.3607 21.0915 24.4239 21.0844C24.4661 21.0795 24.5082 21.0733 24.5506 21.0698C24.6576 21.0611 24.7653 21.0555 24.8749 21.0555C24.9627 21.0555 25.0488 21.0613 25.1349 21.0671C25.2008 21.0721 25.2682 21.0779 25.3431 21.0871C25.3436 21.0871 25.3438 21.0869 25.3444 21.0871C27.0196 21.2879 28.3144 22.5444 28.3144 24.0634C28.3144 25.7224 26.7722 27.0718 24.8762 27.0718Z" fill="black"/>
<path d="M24.1679 21.9863C24.1117 21.8686 23.9571 21.8137 23.823 21.8626C23.4937 21.9829 23.1992 22.1558 22.9476 22.3761C22.6958 22.5967 22.4985 22.8544 22.3607 23.1421C22.3046 23.2597 22.3678 23.3948 22.5021 23.4439C22.5353 23.4561 22.5698 23.4616 22.6038 23.4616C22.7068 23.4616 22.8048 23.4086 22.847 23.3201C22.9579 23.0879 23.117 22.88 23.3201 22.7021C23.5232 22.5244 23.7606 22.3851 24.0264 22.2881C24.1605 22.2388 24.224 22.1037 24.1679 21.9863Z" fill="black"/>
</g>
<defs>
<clipPath id="clip0_363_7538">
<rect width="24" height="21" fill="white" transform="translate(5 7)"/>
</clipPath>
</defs>
</svg>
